<?xml version="1.0" encoding="utf-8"?>
<!-- Generator: Adobe Illustrator 16.0.4, SVG Export Plug-In . SVG Version: 6.00 Build 0)  -->
<!DOCTYPE svg PUBLIC "-//W3C//DTD SVG 1.1//EN" "http://www.w3.org/Graphics/SVG/1.1/DTD/svg11.dtd">
<svg version="1.1" id="Layer_1" xmlns="http://www.w3.org/2000/svg" xmlns:xlink="http://www.w3.org/1999/xlink" x="0px" y="0px" viewBox="0 0 36 36" enable-background="new 0 0 36 36" xml:space="preserve">
<g>
	<g>
		<path fill="#ED1C24" d="M3.278,21.438c0.007-0.021,0.014-0.038,0.023-0.062c0.021-0.062,0.048-0.129,0.072-0.192
			c0.021-0.06,0.045-0.115,0.067-0.175c0.011-0.026,0.022-0.055,0.032-0.079c0.335-0.829,0.758-1.681,1.27-2.543
			c0.067-0.144,0.135-0.284,0.205-0.427l-2.155,0.006l0.523-1.154c1.78-0.486,4.75-1.479,7.582-4.227l0.084-0.006h1.491
			l-1.928,4.133l3.099-0.01l-0.569,1.23l-3.092,0.011c0,0-1.451,2.901-1.943,4.976c-0.383,2.314-0.006,4.045,2.067,4.689
			c1.281,0.396,2.88,0.307,4.603-0.18c4.011-1.25,8.295-4.006,11.431-7.654c5.162-5.997,5.265-12.13,0.228-13.697
			C23.14,5.072,18.585,6.188,14.37,8.702C19.624,5.31,25.403,3.72,29.392,4.96c0.748,0.233,1.395,0.554,1.945,0.949
			c-3.293-3.632-8.051-5.91-13.34-5.91c-9.938,0-17.998,8.059-17.998,17.998c0,3.67,1.1,7.084,2.984,9.932
			C2.271,26.169,2.371,23.915,3.278,21.438z"/>
		<path fill="#ED1C24" d="M33.261,8.452c1.203,3.269-0.303,8.151-4.46,12.982c-6.241,7.258-16.103,11.648-22.019,9.805
			c-0.736-0.227-1.373-0.543-1.916-0.932c3.284,3.504,7.951,5.693,13.131,5.693c9.943,0,18.004-8.06,18.004-18
			C36.001,14.491,34.993,11.219,33.261,8.452z"/>
	</g>
</g>
</svg>
